<?xml version="1.0" encoding="utf-8" ?><svg xmlns="http://www.w3.org/2000/svg" xmlns:xlink="http://www.w3.org/1999/xlink" width="104" height="104" viewBox="0 0 104 104"><path fill="#020101" d="M44.9906 34.7687C50.4503 41.6754 48.5324 37.1648 56.0239 38.8979C57.5623 37.7103 59.3557 35.8705 61.2557 35.8174C63.3823 37.0061 61.4216 42.5851 61.7231 45.1731C61.9965 47.52 62.0435 48.0662 62.8916 50.3519C61.2122 53.2971 60.6923 53.82 57.6713 55.2721L57.7308 56.3466C55.8711 58.0966 54.2698 60.6701 52.6806 62.0128C50.0541 59.3693 49.2283 60.2996 47.0683 56.8389C47.0586 56.5067 47.0212 55.5253 46.8511 55.3217C44.7056 52.7537 43.7786 52.4479 42.1931 49.3281C45.1222 42.3569 42.0535 41.6234 44.9906 34.7687ZM45.1332 36.4074C44.7563 41.1344 44.882 45.6474 44.0018 50.3669C43.8648 51.1015 48.3445 53.976 48.7119 55.0011C48.5226 55.6052 48.6437 55.5108 48.2305 55.8612C48.236 55.9046 48.2422 55.948 48.2492 55.9912C48.6207 58.2261 51.1383 58.9575 52.9992 60.2763C53.9566 58.5783 54.8942 56.8692 55.8117 55.1493C56.5653 53.9921 58.4776 53.3074 59.7808 52.7321L61.2831 50.4097C60.9895 49.0203 60.3995 46.4016 60.4306 45.0801C60.5074 41.8144 61.1432 39.8631 60.997 36.4585C59.6894 37.4902 57.5025 39.3257 56.1087 40.0474C55.5088 39.9567 53.3021 39.6187 52.8082 39.6567C50.8203 39.8098 48.2987 40.9478 46.744 38.9573C46.3028 38.3924 45.5374 37.0749 45.1332 36.4074Z"/><path fill="#202326" d="M55.8117 55.1493C56.4624 55.1024 57.0951 54.9871 57.6713 55.2721L57.7308 56.3466C55.8711 58.0966 54.2698 60.6701 52.6806 62.0128C50.0541 59.3693 49.2283 60.2996 47.0683 56.8389C47.2165 56.3995 47.3108 56.2972 47.5966 55.9285L48.2305 55.8612C48.236 55.9046 48.2422 55.948 48.2492 55.9912C48.6207 58.2261 51.1383 58.9575 52.9992 60.2763C53.9566 58.5783 54.8942 56.8692 55.8117 55.1493Z"/><path fill="#343435" d="M43.6597 95.9538C42.3882 96.9577 42.0501 97.1773 41.4911 98.7108C41.3254 99.1654 41.0208 99.3818 40.5831 99.5165C40.4985 99.4447 40.4185 99.3677 40.3436 99.2858C39.6336 98.4968 40.3039 97.7211 40.3481 96.7663C39.5818 95.3939 35.8121 95.5214 38.8269 92.4278C40.3247 90.8909 37.7795 90.5881 37.5349 88.8386C37.8573 86.7872 38.9479 86.7964 40.7408 85.4299C41.5022 83.6252 39.0549 83.2225 38.6203 81.7858C38.0103 79.7688 40.626 78.1063 41.4834 76.4016C42.687 74.0084 42.9811 70.4482 45.8923 69.4807C49.4601 68.7953 54.6436 68.6039 58.1108 69.7469C60.9749 70.6911 61.3481 76.193 63.4806 78.2702C63.7171 78.5005 64.8808 80.3128 64.9585 80.5668C65.4746 82.254 63.512 83.114 62.7705 84.2755C62.0808 86.3588 65.2671 86.4032 66.0121 88.5876C65.8523 90.0083 65.0831 90.5626 64.0434 91.4617C64.6945 92.3044 65.5123 93.1908 65.6828 94.227C65.2799 95.5698 63.7992 95.2831 63.3605 96.7622C63.0608 97.7726 63.6446 97.4993 63.6048 98.6649C63.2568 99.1441 62.9677 99.6802 62.4078 99.8204C62.2625 99.4508 61.7426 97.7562 61.6848 97.7024C58.7133 94.9385 61.9627 94.4809 61.8846 92.7316C60.081 90.662 55.0937 92.1943 53.4004 90.944C53.547 90.157 56.0549 89.1799 56.8651 88.5538C57.9198 87.8285 58.8901 87.007 59.7537 86.0535C64.0094 81.3547 57.8875 81.7176 56.5112 80.4737C56.9907 79.9249 58.1828 80.4725 58.8868 79.8232C58.7732 79.049 58.8287 79.2841 58.3178 78.6397L57.8158 77.8464C54.9422 75.4402 56.633 72.2979 51.8008 74.7337C50.9174 74.3404 49.8005 73.7347 48.8649 73.7795C48.3662 74.0337 47.9432 74.4416 47.8941 74.9529C47.7268 76.692 44.3462 78.5331 44.9744 79.8526L46.096 80.1595C46.1334 80.3608 45.9325 80.5523 45.7825 80.7742C45.0204 81.0024 44.7042 81.0749 44.0335 81.5123L43.9191 81.6672C40.9216 82.5435 42.7842 84.9417 43.9989 86.2487C46.0375 88.4422 48.0706 89.1803 50.5241 90.6784C49.7057 92.1501 42.0452 88.6002 41.0439 91.5577C41.1352 92.7672 42.9242 94.9839 43.6597 95.9538ZM61.4418 90.5591L61.5037 90.1327C60.9767 89.4808 59.7279 87.9182 59.019 87.6566C59.2626 88.8232 60.1788 89.6719 61.1023 90.5211L61.4418 90.5591Z"/><path fill="#343435" fill-opacity="0.7647059" d="M59.019 87.6566C59.7279 87.9182 60.9767 89.4808 61.5037 90.1327L61.4418 90.5591L61.1023 90.5211C60.1788 89.6719 59.2626 88.8232 59.019 87.6566Z"/><path fill="#343435" d="M42.6612 9.05614C44.1802 9.66006 43.1681 12.0494 44.7369 13.0104C46.6982 14.2119 47.4384 14.7047 48.4925 16.732C49.2491 15.6025 51.8633 12.0821 53.3252 12.7423C53.5844 13.5287 52.8946 14.7634 52.5434 15.583C53.2523 15.1868 55.1693 13.9836 55.6365 13.4021C55.4492 12.9994 55.3546 12.7892 55.2323 12.3631C56.353 11.8219 58.2506 12.5527 59.4162 12.9123C60.346 11.9093 59.5988 10.3103 60.6068 9.41145C61.8069 11.2153 61.0454 14.4719 60.6687 16.493C61.8293 15.8516 64.1767 14.5246 65.4373 15.2106C66.0588 16.2741 64.4697 17.1889 65.9803 17.5312C66.3295 17.6104 66.7492 17.853 67.0408 18.0654L66.9727 18.4307C66.3227 19.075 65.8747 19.3553 65.1098 19.8626L65.0724 19.8919C60.7376 23.2274 60.4273 18.7041 59.3682 18.8523C57.7539 19.0782 55.3781 21.5253 52.3517 21.3733C49.1533 21.2126 47.5693 20.8622 44.784 18.9276C44.7129 18.878 44.8114 18.2312 44.3549 17.7864L43.7592 17.9405C43.3578 19.1661 44.4581 19.3228 43.9715 20.7246C43.3611 21.4579 42.1326 21.9152 41.2369 22.3269C40.1441 21.6665 37.7059 20.1116 37.0104 19.1596C37.3046 18.1108 38.1746 18.7409 38.7074 17.7578L38.1135 16.7403L38.2603 16.3583C39.8094 15.6311 41.1472 16.7184 42.8579 16.9423C43.1838 16.2063 42.3207 12.9096 42.3763 11.7947C42.4259 10.8002 42.5148 10.0485 42.6612 9.05614Z"/><path fill="#343435" d="M83.1866 40.5851C86.7093 39.3323 89.448 39.25 92.6614 41.4226L92.1681 41.5753C89.6376 41.2576 85.4275 42.1442 85.4157 45.3447C85.4018 49.1647 86.7285 49.7428 85.5811 53.7348C85.3399 54.6097 85.1041 55.1506 85.4457 55.9831C86.074 56.8731 87.4403 57.1657 88.5101 57.4847C89.6236 58.2601 90.4642 58.5264 91.8093 58.4915L92.1432 58.7164L91.6871 59.4154C88.1758 61.0194 86.9494 60.0607 83.4911 59.6924C83.0648 60.0177 82.9363 60.1981 82.6059 60.6137C82.0139 60.3563 82.1068 60.1511 81.7968 59.3707C80.8102 58.7392 81.2321 59.7208 80.0856 59.4145C79.8192 58.3452 80.7957 57.4098 80.6303 56.951C78.9926 52.4092 78.0498 47.6632 76.8508 42.9644C77.3241 41.4984 78.8346 42.4604 79.9245 41.7029C79.7591 41.1279 79.7037 40.9575 79.7285 40.3484L80.2059 40.0593C81.3195 39.9801 82.1287 40.2777 83.1866 40.5851Z"/><path fill="#C1C1C1" d="M12.2599 29.9597C15.2571 23.0008 23.532 15.2961 30.5477 11.9829C31.3277 11.6145 32.2161 11.4775 33.082 11.5587C33.855 12.262 34.99 13.9569 35.4827 14.9023C33.5559 16.4633 30.5008 18.0329 28.3352 19.4982C23.7374 22.609 20.928 26.013 17.5124 30.2176L16.6882 30.3724C14.8339 29.9945 14.1561 29.7882 12.2599 29.9597Z"/><defs><linearGradient id="gradient_0" gradientUnits="userSpaceOnUse" x1="86.010704" y1="31.010868" x2="76.397644" y2="14.330098"><stop offset="0" stop-color="#A6A4A6"/><stop offset="1" stop-color="#E3E2E3"/></linearGradient></defs><path fill="url(#gradient_0)" d="M86.3034 31.7593C82.5763 26.2606 78.604 21.8566 72.9886 18.2101C72.4239 17.8434 71.7528 17.3947 71.5308 16.7438C71.7481 16.3305 74.859 13.7589 75.4181 14.0165C81.8089 16.961 86.4287 22.9581 90.3002 28.5001C91.1155 29.9285 91.7426 31.4175 92.4731 32.7095C91.3601 33.5137 89.61 32.5797 87.7572 33.2892C87.0779 33.0078 86.7248 32.3657 86.3034 31.7593Z"/><path fill="#C1C1C1" d="M90.3002 28.5001C91.1155 29.9285 91.7426 31.4175 92.4731 32.7095C91.3601 33.5137 89.61 32.5797 87.7572 33.2892C87.0779 33.0078 86.7248 32.3657 86.3034 31.7593C86.5532 29.5611 89.2688 30.2537 90.3002 28.5001Z"/><path fill="#8A898A" d="M7.42658 62.3231C8.55049 62.6927 8.97468 64.1432 9.74436 64.2162C10.9697 64.3324 11.2424 63.6329 12.69 64.5589C13.2068 66.4688 16.1516 71.9036 17.151 73.7909C18.4578 75.5766 19.9198 77.6168 21.3272 79.299C20.0756 81.0546 19.0422 80.7564 17.8147 82.3772C17.2321 81.9464 17.2974 81.867 16.6222 81.7819C15.9503 81.2732 12.8221 76.6437 12.3665 75.6741C10.1851 72.9286 7.73203 65.9319 7.42658 62.3231Z"/><path fill="#C1C1C1" d="M17.151 73.7909C18.4578 75.5766 19.9198 77.6168 21.3272 79.299C20.0756 81.0546 19.0422 80.7564 17.8147 82.3772C17.2321 81.9464 17.2974 81.867 16.6222 81.7819C15.9503 81.2732 12.8221 76.6437 12.3665 75.6741L12.7077 75.5306L13.2431 76.3695C14.2859 75.91 16.3063 75.2742 17.0722 74.6268L16.8402 74.1606L17.151 73.7909Z"/><defs><linearGradient id="gradient_1" gradientUnits="userSpaceOnUse" x1="20.269438" y1="79.902534" x2="32.961971" y2="93.961441"><stop offset="0" stop-color="#BFBEBE"/><stop offset="1" stop-color="#F0EFF1"/></linearGradient></defs><path fill="url(#gradient_1)" d="M16.6222 81.7819C17.2974 81.867 17.2321 81.9464 17.8147 82.3772C19.0422 80.7564 20.0756 81.0546 21.3272 79.299C23.2759 81.5895 25.8601 83.5812 28.4354 85.5169C29.4573 86.2849 34.2059 89.0929 35.1823 90.1801C35.2824 90.2914 34.9408 92.5339 34.9557 92.9574C34.9843 93.7688 35.3535 93.8858 34.8329 94.4349C30.8192 94.7597 18.8758 85.1829 16.6222 81.7819Z"/><defs><linearGradient id="gradient_2" gradientUnits="userSpaceOnUse" x1="82.618408" y1="78.463829" x2="73.663284" y2="93.305298"><stop offset="0" stop-color="#BFBDBD"/><stop offset="1" stop-color="#ECECED"/></linearGradient></defs><path fill="url(#gradient_2)" d="M82.61 78.2938C82.7081 78.4819 82.826 78.7082 82.9638 78.9725C84.183 79.3217 85.4319 80.3865 86.5074 80.8727L87.1889 80.8109C83.5047 86.0322 76.5559 91.0825 70.7009 93.522C70.6291 92.9529 70.0587 88.8983 70.337 88.6823C74.8065 85.2133 78.826 82.5992 82.61 78.2938Z"/><path fill="#343435" d="M18.5155 43.0235C17.3211 42.4707 15.7682 42.4064 15.1861 41.8157C15.6192 40.1566 20.0165 42.1779 21.7251 40.6128C24.9559 42.0142 27.4384 49.7169 26.0383 52.93C25.54 54.0735 22.4489 56.9259 21.3356 57.705C19.4517 57.9189 17.0305 58.1257 15.405 56.9372L15.4019 56.4648C17.906 54.7679 20.2568 57.2932 20.8523 53.5393C21.0672 52.1848 21.5749 47.2796 20.8475 46.4049C19.9803 45.3622 19.7125 46.1598 18.7911 44.2661C19.8149 44.272 19.5851 44.2994 20.5423 45.1218L20.9189 44.9321C21.0623 43.4313 19.7426 43.218 18.5155 43.0235Z"/><path fill="#343435" d="M88.4167 43.1575L88.6983 43.4569C88.6494 44.1451 87.7728 47.7731 87.4344 48.3936C86.0564 45.9813 86.613 44.8944 88.4167 43.1575Z"/><defs><linearGradient id="gradient_3" gradientUnits="userSpaceOnUse" x1="91.774376" y1="64.70121" x2="88.064728" y2="76.198219"><stop offset="0" stop-color="#7D7C7D"/><stop offset="1" stop-color="#AAA"/></linearGradient></defs><path fill="url(#gradient_3)" d="M91.1777 64.1415C91.8607 64.7564 92.1965 65.1638 93.105 65.216C93.6708 65.0584 93.9551 65.0028 94.4592 64.6735C94.8137 65.0517 94.9938 65.0931 94.9232 65.5964C94.3424 69.7417 90.9775 75.74 88.5219 79.0005C88.2714 79.3715 87.4826 80.6191 87.1889 80.8109L86.5074 80.8727C85.4319 80.3865 84.183 79.3217 82.9638 78.9725C82.826 78.7082 82.7081 78.4819 82.61 78.2938L84.9139 75.1884C87.0733 72.2322 89.5412 65.5483 91.1777 64.1415Z"/><path fill="#C1C1C1" d="M84.9139 75.1884C85.829 75.4143 88.5197 75.9994 88.964 76.7013C89.1021 77.8465 88.347 77.5776 88.5219 79.0005C88.2714 79.3715 87.4826 80.6191 87.1889 80.8109L86.5074 80.8727C85.4319 80.3865 84.183 79.3217 82.9638 78.9725C82.826 78.7082 82.7081 78.4819 82.61 78.2938L84.9139 75.1884Z"/><path fill="#202326" d="M57.8158 77.8464L58.3178 78.6397C56.4237 79.0137 55.0902 80.2573 52.6557 81C52.9399 82.5382 53.5454 84.6428 55.3343 84.9488C56.9269 84.7599 57.8498 83.4935 58.9503 82.3348C59.2204 82.9761 58.7611 84.1332 58.5502 84.8614C53.6949 86.8214 53.4032 84.2885 51.8659 81.5032C51.6154 81.0493 46.8508 80.0374 45.9549 78.4895C46.8898 77.626 50.163 79.9246 51.3674 79.9983C53.8515 80.1503 55.1704 78.544 57.8158 77.8464Z"/><path fill="#343435" d="M95.73 47.7109C97.957 48.843 97.9225 51.4546 95.7751 52.6392C95.2087 51.5961 95.3371 48.8344 95.73 47.7109Z"/><path fill="#343435" d="M86.4587 54.6213C86.804 53.5658 87.1371 52.43 87.6488 51.45C87.9243 53.404 88.6496 55.5472 88.799 56.754L88.5408 57.0878C87.4689 56.85 86.9298 55.5239 86.4587 54.6213Z"/><path fill="#020101" d="M49.2075 86.7887C49.5962 86.79 53.9728 87.0528 53.9458 87.0415L54.2091 87.8887L54.1603 87.9067C52.441 88.5402 49.9613 88.9534 49.2075 86.7887Z"/><path fill="#202326" fill-opacity="0.98823529" d="M43.9191 81.6672L44.0335 81.5123C44.0947 81.5698 44.5762 82.0217 44.5763 82.0222C45.303 85.2134 45.8114 84.2372 49.8919 84.4493C49.3427 85.055 48.0598 85.2899 47.2245 85.513C44.9717 84.9429 44.0146 84.302 43.9191 81.6672Z"/><defs><linearGradient id="gradient_4" gradientUnits="userSpaceOnUse" x1="85.646889" y1="55.287224" x2="86.969818" y2="54.992474"><stop offset="0" stop-color="#343436" stop-opacity="0"/><stop offset="1" stop-color="#333232" stop-opacity="0.06666667"/></linearGradient></defs><path fill="url(#gradient_4)" d="M85.5811 53.7348L86.1525 53.8515L86.3299 54.6231L86.4587 54.6213C86.9298 55.5239 87.4689 56.85 88.5408 57.0878L88.5101 57.4847C87.4403 57.1657 86.074 56.8731 85.4457 55.9831C85.1041 55.1506 85.3399 54.6097 85.5811 53.7348Z"/><path fill="#202326" fill-opacity="0.023529412" d="M18.5155 43.0235C19.7426 43.218 21.0623 43.4313 20.9189 44.9321L20.5423 45.1218C19.5851 44.2994 19.8149 44.272 18.7911 44.2661C18.661 44.017 18.5696 43.3338 18.5155 43.0235Z"/></svg>